<svg xmlns="http://www.w3.org/2000/svg" viewBox="0 0 63.11 55.32"><defs><style>.cls-1,.cls-2{fill:#5c6bc0;}.cls-2{opacity:0.5;}.cls-3{fill:#5448a8;}</style></defs><g id="Layer_2" data-name="Layer 2"><g id="Layer_1-2" data-name="Layer 1"><path class="cls-1" d="M4.05,48.21h0a7.11,7.11,0,0,0,7.11,7.11H52a7.11,7.11,0,0,0,7.11-7.11v-2a7.06,7.06,0,0,0-1-3.71L43.91,19.39A7.09,7.09,0,0,0,37.85,16H25.33a7.09,7.09,0,0,0-6,3.32L6.52,39.65A16,16,0,0,0,4.05,48.21Z"/><path class="cls-2" d="M59.34,8.39C52.1,2.93,42.67,1,36.94.39a44.26,44.26,0,0,0-8.46-.3h-.11c-5.2.4-16.33,2-24.6,8.22A9.69,9.69,0,0,0,0,16.15l0,2.5a2.71,2.71,0,0,0,2.7,2.67h7.39a2.7,2.7,0,0,0,2.52-1.73l2.66-6.91a2.6,2.6,0,0,1,1-1.27c1.33-.85,4.68-2.27,12.36-2.49a2.85,2.85,0,0,0,.66-.11c1.35,0,2.85,0,4.53.11a2.2,2.2,0,0,0,.58.08c7.68.23,11,1.64,12.36,2.49a2.63,2.63,0,0,1,1,1.28l2.66,6.91A2.69,2.69,0,0,0,53,21.4h7.39a2.7,2.7,0,0,0,2.7-2.67l0-2.49A9.71,9.71,0,0,0,59.34,8.39Z"/><circle class="cls-3" cx="31.49" cy="34.64" r="8.94"/></g></g></svg>